<svg width="96" height="97" xmlns="http://www.w3.org/2000/svg">
 <title>Seasons</title>

 <g>
  <title>background</title>
  <rect fill="none" id="canvas_background" height="99" width="98" y="-1" x="-1"/>
 </g>
 <g>
  <title>Layer 1</title>
  <path id="svg_1" d="m26.41,43.23a0.81,0.81 0 0 1 -0.81,-0.81l0,-37a0.81,0.81 0 1 1 1.62,0l0,37a0.81,0.81 0 0 1 -0.81,0.81z"/>
  <path id="svg_2" d="m26.41,10.36a0.82,0.82 0 0 1 -0.58,-0.24l-2.77,-2.78a0.81,0.81 0 1 1 1.15,-1.15l2.2,2.2l2.2,-2.2a0.81,0.81 0 1 1 1.15,1.15l-2.76,2.78a0.82,0.82 0 0 1 -0.59,0.24z"/>
  <path id="svg_3" d="m26.41,15a0.82,0.82 0 0 1 -0.58,-0.24l-4.49,-4.49a0.81,0.81 0 1 1 1.15,-1.15l3.92,3.88l3.92,-3.92a0.81,0.81 0 1 1 1.15,1.15l-4.48,4.48a0.82,0.82 0 0 1 -0.59,0.29z"/>
  <path id="svg_4" d="m29.18,41.87a0.81,0.81 0 0 1 -0.57,-0.24l-2.2,-2.2l-2.2,2.2a0.81,0.81 0 1 1 -1.15,-1.15l2.77,-2.77a0.82,0.82 0 0 1 1.16,0l2.77,2.77a0.81,0.81 0 0 1 0,1.15a0.82,0.82 0 0 1 -0.58,0.24z"/>
  <path id="svg_5" d="m30.9,39a0.78,0.78 0 0 1 -0.57,-0.24l-3.92,-3.91l-3.92,3.91a0.81,0.81 0 0 1 -1.15,-1.15l4.49,-4.49a0.82,0.82 0 0 1 1.16,0l4.49,4.49a0.81,0.81 0 0 1 0,1.15a0.82,0.82 0 0 1 -0.58,0.24z"/>
  <path id="svg_6" d="m42.43,34a0.83,0.83 0 0 1 -0.4,-0.11l-32.03,-18.52a0.82,0.82 0 0 1 0.79,-1.37l32.05,18.46a0.81,0.81 0 0 1 -0.41,1.54z"/>
  <path id="svg_7" d="m10.17,18.56a0.81,0.81 0 0 1 -0.17,-1.56l3,-0.81l-0.81,-3a0.82,0.82 0 0 1 1.58,-0.43l1,3.8a0.8,0.8 0 0 1 -0.57,1l-3.79,1l-0.24,0z"/>
  <path id="svg_8" d="m11.81,21.48a0.81,0.81 0 0 1 -0.21,-1.6l5.4,-1.43l-1.49,-5.35a0.82,0.82 0 1 1 1.58,-0.42l1.64,6.13a0.81,0.81 0 0 1 -0.57,1l-6.16,1.65l-0.19,0.02z"/>
  <path id="svg_9" d="m39.87,35.7a0.82,0.82 0 0 1 -0.79,-0.6l-1,-3.79a0.81,0.81 0 0 1 0.57,-1l3.79,-1a0.82,0.82 0 0 1 0.43,1.58l-3,0.8l0.81,3a0.81,0.81 0 0 1 -0.58,1l-0.23,0.01z"/>
  <path id="svg_10" d="m36.52,35.75a0.82,0.82 0 0 1 -0.79,-0.6l-1.64,-6.15a0.82,0.82 0 0 1 0.57,-1l6.14,-1.64a0.81,0.81 0 1 1 0.42,1.57l-5.35,1.44l1.44,5.34a0.82,0.82 0 0 1 -0.58,1a0.76,0.76 0 0 1 -0.21,0.04z"/>
  <path id="svg_11" d="m10.39,34a0.81,0.81 0 0 1 -0.71,-0.41a0.81,0.81 0 0 1 0.3,-1.11l32.02,-18.48a0.81,0.81 0 0 1 1.11,0.3a0.83,0.83 0 0 1 -0.3,1.12l-32.02,18.45a0.86,0.86 0 0 1 -0.4,0.13z"/>
  <path id="svg_12" d="m13,35.7l-0.21,0a0.81,0.81 0 0 1 -0.58,-1l0.81,-3l-3,-0.8a0.82,0.82 0 0 1 -0.57,-1a0.83,0.83 0 0 1 1,-0.58l3.79,1a0.81,0.81 0 0 1 0.57,1l-1,3.79a0.82,0.82 0 0 1 -0.81,0.59z"/>
  <path id="svg_13" d="m16.3,35.75a0.76,0.76 0 0 1 -0.21,0a0.82,0.82 0 0 1 -0.58,-1l1.49,-5.37l-5.4,-1.44a0.81,0.81 0 1 1 0.4,-1.57l6.16,1.63a0.82,0.82 0 0 1 0.57,1l-1.64,6.14a0.82,0.82 0 0 1 -0.79,0.61z"/>
  <path id="svg_14" d="m42.65,18.56a0.83,0.83 0 0 1 -0.22,0l-3.79,-1a0.8,0.8 0 0 1 -0.57,-1l1,-3.8a0.82,0.82 0 0 1 1.58,0.43l-0.81,3l3,0.81a0.81,0.81 0 0 1 -0.21,1.6l0.02,-0.04z"/>
  <path id="svg_15" d="m41,21.48l-0.21,0l-6.14,-1.65a0.81,0.81 0 0 1 -0.57,-1l1.64,-6.13a0.82,0.82 0 0 1 1.58,0.42l-1.44,5.35l5.35,1.43a0.81,0.81 0 0 1 -0.21,1.6l0,-0.02z"/>
  <path id="svg_16" d="m83.34,92a18,18 0 0 1 -18,-18a0.82,0.82 0 0 1 0.82,-0.82a0.82,0.82 0 0 1 0.84,0.82a16.4,16.4 0 0 0 16.34,16.36a0.81,0.81 0 0 1 0.81,0.81a0.82,0.82 0 0 1 -0.81,0.83z"/>
  <path id="svg_17" d="m83.42,91.91a0.86,0.86 0 0 1 -0.58,-0.24l-21.12,-21.12a0.82,0.82 0 0 1 1.15,-1.16l3.69,3.69a18,18 0 0 1 17.67,18a0.81,0.81 0 0 1 -0.5,0.75a0.87,0.87 0 0 1 -0.31,0.08zm-15.1,-17.07l14.15,14.16a16.42,16.42 0 0 0 -14.15,-14.16z"/>
  <path id="svg_18" d="m76.2,90.46a0.82,0.82 0 0 1 -0.82,-0.82l0,-5.88a0.82,0.82 0 0 1 0.82,-0.76a0.81,0.81 0 0 1 0.81,0.81l0,5.88a0.82,0.82 0 0 1 -0.81,0.77z"/>
  <path id="svg_19" d="m70.74,86.4a0.82,0.82 0 0 1 -0.82,-0.81l0,-7.2a0.82,0.82 0 0 1 0.82,-0.81a0.81,0.81 0 0 1 0.81,0.81l0,7.2a0.81,0.81 0 0 1 -0.81,0.81z"/>
  <path id="svg_20" d="m77.78,79.26l-7.07,0a0.81,0.81 0 0 1 -0.81,-0.81a0.82,0.82 0 0 1 0.81,-0.82l7.07,0a0.82,0.82 0 0 1 0.81,0.82a0.81,0.81 0 0 1 -0.81,0.81z"/>
  <path id="svg_21" d="m81.8,84.65l-5.65,0a0.82,0.82 0 0 1 -0.82,-0.82a0.82,0.82 0 0 1 0.82,-0.81l5.65,0a0.81,0.81 0 0 1 0.81,0.81a0.82,0.82 0 0 1 -0.81,0.82z"/>
  <path id="svg_22" d="m75.59,70.26a17.89,17.89 0 0 1 -12.74,-5.26a0.81,0.81 0 0 1 0,-1.15a0.82,0.82 0 0 1 1.16,0a16.38,16.38 0 0 0 23.17,0a0.81,0.81 0 0 1 1.15,1.15a17.87,17.87 0 0 1 -12.74,5.26z"/>
  <path id="svg_23" d="m87.75,65.1l-29.87,0a0.81,0.81 0 0 1 0,-1.62l5.22,0a18,18 0 0 1 25.23,0.23a0.82,0.82 0 0 1 0.17,0.89a0.79,0.79 0 0 1 -0.75,0.5zm-22.17,-1.62l20,0a16.4,16.4 0 0 0 -20,0z"/>
  <path id="svg_24" d="m81.62,69.19a0.78,0.78 0 0 1 -0.57,-0.24l-4.16,-4.16a0.81,0.81 0 0 1 1.11,-1.15l4.16,4.15a0.82,0.82 0 0 1 -0.58,1.4l0.04,0z"/>
  <path id="svg_25" d="m74.89,70.18a0.81,0.81 0 0 1 -0.57,-0.24l-5.09,-5.08a0.82,0.82 0 0 1 1.15,-1.16l5.09,5.09a0.81,0.81 0 0 1 0,1.15a0.82,0.82 0 0 1 -0.58,0.24z"/>
  <path id="svg_26" d="m69.82,65.15a0.82,0.82 0 0 1 -0.57,-1.39l5,-5a0.82,0.82 0 0 1 1.16,1.16l-5,5a0.82,0.82 0 0 1 -0.59,0.23z"/>
  <path id="svg_27" d="m77.48,65.11a0.82,0.82 0 0 1 -0.58,-0.24a0.81,0.81 0 0 1 0,-1.15l4,-4a0.81,0.81 0 0 1 1.15,1.15l-4,4a0.8,0.8 0 0 1 -0.57,0.24z"/>
  <path id="svg_28" d="m26.41,83.71a10.44,10.44 0 1 1 10.44,-10.44a10.45,10.45 0 0 1 -10.44,10.44zm0,-19.25a8.81,8.81 0 1 0 8.81,8.81a8.82,8.82 0 0 0 -8.81,-8.81z"/>
  <path id="svg_29" d="m26.41,59.87a0.81,0.81 0 0 1 -0.81,-0.81l0,-4.44a0.81,0.81 0 0 1 1.62,0l0,4.44a0.81,0.81 0 0 1 -0.81,0.81z"/>
  <path id="svg_30" d="m26.41,92.73a0.81,0.81 0 0 1 -0.81,-0.81l0,-4.44a0.81,0.81 0 1 1 1.62,0l0,4.44a0.81,0.81 0 0 1 -0.81,0.81z"/>
  <path id="svg_31" d="m19.3,61.78a0.81,0.81 0 0 1 -0.7,-0.41l-2.22,-3.84a0.82,0.82 0 0 1 1.41,-0.82l2.21,3.84a0.83,0.83 0 0 1 -0.3,1.12a0.87,0.87 0 0 1 -0.4,0.11z"/>
  <path id="svg_32" d="m35.73,90.23a0.8,0.8 0 0 1 -0.7,-0.4l-2.22,-3.83a0.83,0.83 0 0 1 0.3,-1.12a0.81,0.81 0 0 1 1.11,0.3l2.22,3.82a0.81,0.81 0 0 1 -0.3,1.11a0.77,0.77 0 0 1 -0.41,0.12z"/>
  <path id="svg_33" d="m14.1,67a0.87,0.87 0 0 1 -0.41,-0.11l-3.84,-2.24a0.82,0.82 0 0 1 0.82,-1.41l3.84,2.22a0.81,0.81 0 0 1 0.3,1.11a0.84,0.84 0 0 1 -0.71,0.43z"/>
  <path id="svg_34" d="m42.56,83.41a0.87,0.87 0 0 1 -0.41,-0.11l-3.84,-2.22a0.81,0.81 0 0 1 -0.31,-1.08a0.83,0.83 0 0 1 1.12,-0.3l3.88,2.19a0.82,0.82 0 0 1 -0.41,1.52l-0.03,0z"/>
  <path id="svg_35" d="m12.2,74.08l-4.44,0a0.81,0.81 0 1 1 0,-1.62l4.44,0a0.81,0.81 0 0 1 0,1.62z"/>
  <path id="svg_36" d="m45.06,74.08l-4.44,0a0.81,0.81 0 0 1 0,-1.62l4.44,0a0.81,0.81 0 1 1 0,1.62z"/>
  <path id="svg_37" d="m10.26,83.41a0.82,0.82 0 0 1 -0.41,-1.52l3.84,-2.22a0.83,0.83 0 0 1 1.12,0.3a0.81,0.81 0 0 1 -0.3,1.11l-3.84,2.22a0.87,0.87 0 0 1 -0.41,0.11z"/>
  <path id="svg_38" d="m38.72,67a0.83,0.83 0 0 1 -0.71,-0.41a0.81,0.81 0 0 1 0.3,-1.11l3.84,-2.22a0.82,0.82 0 0 1 0.85,1.39l-3.84,2.22a0.87,0.87 0 0 1 -0.44,0.13z"/>
  <path id="svg_39" d="m17.09,90.23a0.77,0.77 0 0 1 -0.41,-0.11a0.81,0.81 0 0 1 -0.3,-1.11l2.22,-3.84a0.81,0.81 0 0 1 1.11,-0.3a0.83,0.83 0 0 1 0.29,1.13l-2.22,3.84a0.8,0.8 0 0 1 -0.69,0.39z"/>
  <path id="svg_40" d="m33.52,61.78a0.87,0.87 0 0 1 -0.41,-0.11a0.83,0.83 0 0 1 -0.3,-1.12l2.19,-3.84a0.82,0.82 0 0 1 1.41,0.82l-2.22,3.84a0.81,0.81 0 0 1 -0.67,0.41z"/>
  <path id="svg_41" d="m50,50.87a0.87,0.87 0 0 1 -0.87,-0.87l0,-44.38a0.87,0.87 0 0 1 1.74,0l0,44.38a0.87,0.87 0 0 1 -0.87,0.87z"/>
  <path id="svg_42" d="m50,95.25a0.87,0.87 0 0 1 -0.87,-0.87l0,-44.38a0.87,0.87 0 0 1 1.74,0l0,44.38a0.87,0.87 0 0 1 -0.87,0.87z"/>
  <path id="svg_43" d="m94.38,50.87l-44.38,0a0.87,0.87 0 0 1 0,-1.74l44.38,0a0.87,0.87 0 1 1 0,1.74z"/>
  <path id="svg_44" d="m50,50.87l-44.38,0a0.87,0.87 0 0 1 0,-1.74l44.38,0a0.87,0.87 0 0 1 0,1.74z"/>
  <path id="svg_45" d="m72.62,43.37c-1.75,0 -3.17,-2 -3.83,-5.16c-2.16,2.44 -4.38,3.43 -5.9,2.56s-1.76,-3.3 -0.74,-6.39c-3.09,1 -5.51,0.78 -6.38,-0.74s0.12,-3.73 2.55,-5.9c-3.19,-0.65 -5.16,-2.08 -5.16,-3.83s2,-3.17 5.16,-3.83c-2.43,-2.16 -3.43,-4.38 -2.55,-5.9s3.29,-1.76 6.38,-0.74c-1,-3.09 -0.77,-5.51 0.74,-6.38s3.74,0.12 5.9,2.55c0.66,-3.19 2.08,-5.16 3.83,-5.16s3.18,2 3.84,5.16c2.16,-2.43 4.38,-3.43 5.89,-2.55s1.77,3.29 0.74,6.38c3.09,-1 5.51,-0.78 6.39,0.74s-0.12,3.74 -2.55,5.9c3.18,0.66 5.15,2.08 5.15,3.83s-2,3.18 -5.15,3.83c2.43,2.17 3.42,4.39 2.55,5.9s-3.3,1.77 -6.39,0.74c1,3.09 0.78,5.51 -0.74,6.39s-3.73,-0.12 -5.89,-2.56c-0.66,3.19 -2.09,5.16 -3.84,5.16zm-3.3,-7.94a0.76,0.76 0 0 1 0.21,0a0.8,0.8 0 0 1 0.6,0.7c0.34,3.45 1.56,5.58 2.49,5.58s2.16,-2.13 2.5,-5.58a0.81,0.81 0 0 1 1.47,-0.39c2,2.81 4.14,4 5,3.58s0.8,-2.92 -0.63,-6.07a0.83,0.83 0 0 1 0.17,-0.92a0.81,0.81 0 0 1 0.87,-0.13c3.15,1.42 5.61,1.44 6.08,0.63s-0.78,-2.93 -3.59,-4.95a0.82,0.82 0 0 1 -0.31,-0.87a0.81,0.81 0 0 1 0.71,-0.6c3.44,-0.35 5.57,-1.57 5.57,-2.5s-2.13,-2.15 -5.57,-2.49a0.82,0.82 0 0 1 -0.71,-0.6a0.81,0.81 0 0 1 0.31,-0.87c2.81,-2 4,-4.15 3.59,-4.95s-2.93,-0.8 -6.08,0.63a0.82,0.82 0 0 1 -1.08,-1.08c1.43,-3.16 1.44,-5.61 0.63,-6.08s-2.93,0.77 -5,3.58a0.82,0.82 0 0 1 -0.87,0.32a0.81,0.81 0 0 1 -0.6,-0.71c-0.34,-3.45 -1.56,-5.58 -2.5,-5.58s-2.15,2.13 -2.49,5.58a0.81,0.81 0 0 1 -0.6,0.71a0.82,0.82 0 0 1 -0.87,-0.32c-2,-2.81 -4.14,-4.05 -4.95,-3.58s-0.8,2.92 0.63,6.08a0.82,0.82 0 0 1 -1.08,1.08c-3.16,-1.43 -5.61,-1.44 -6.08,-0.63s0.86,2.93 3.63,5a0.81,0.81 0 0 1 0.31,0.87a0.82,0.82 0 0 1 -0.71,0.6c-3.45,0.34 -5.58,1.56 -5.58,2.49s2.14,2.15 5.58,2.5a0.81,0.81 0 0 1 0.71,0.6a0.82,0.82 0 0 1 -0.31,0.87c-2.82,2 -4.06,4.14 -3.59,4.95s2.92,0.79 6.08,-0.63a0.81,0.81 0 0 1 0.91,0.16a0.83,0.83 0 0 1 0.17,0.92c-1.43,3.15 -1.44,5.61 -0.63,6.07s2.93,-0.77 4.95,-3.58a0.79,0.79 0 0 1 0.66,-0.39z"/>
  <path id="svg_46" d="m72.62,32.58a8.67,8.67 0 1 1 8.67,-8.67a8.68,8.68 0 0 1 -8.67,8.67zm0,-15.7a7,7 0 1 0 7,7a7,7 0 0 0 -7,-7z"/>
  <path id="svg_49" d="m-0.33318,1.14923" opacity="0.5" stroke-width="1.5" stroke="#000" fill="#fff"/>
 </g>
</svg>